<mxfile host="Electron" modified="2024-09-27T17:14:57.686Z" agent="Mozilla/5.0 (Windows NT 10.0; Win64; x64) AppleWebKit/537.36 (KHTML, like Gecko) draw.io/24.6.4 Chrome/124.0.6367.207 Electron/30.0.6 Safari/537.36" etag="cNOpVnDAcEo01_18ACqs" version="24.6.4" type="device">
  <diagram name="Страница — 1" id="o9hKIyCb6lsrubMp6cgj">
    <mxGraphModel dx="1151" dy="548" grid="1" gridSize="10" guides="1" tooltips="1" connect="1" arrows="1" fold="1" page="1" pageScale="1" pageWidth="827" pageHeight="1169" math="0" shadow="0">
      <root>
        <mxCell id="0" />
        <mxCell id="1" parent="0" />
        <mxCell id="ja0reKFXvlu5BaOZ1oow-1" value="Магазин" style="rounded=0;whiteSpace=wrap;html=1;" parent="1" vertex="1">
          <mxGeometry x="1220" y="270" width="120" height="60" as="geometry" />
        </mxCell>
        <mxCell id="ja0reKFXvlu5BaOZ1oow-2" value="&lt;u&gt;ИН&lt;/u&gt;" style="ellipse;whiteSpace=wrap;html=1;" parent="1" vertex="1">
          <mxGeometry x="1130" y="130" width="120" height="80" as="geometry" />
        </mxCell>
        <mxCell id="ja0reKFXvlu5BaOZ1oow-3" value="" style="endArrow=none;html=1;rounded=0;" parent="1" source="ja0reKFXvlu5BaOZ1oow-2" target="ja0reKFXvlu5BaOZ1oow-1" edge="1">
          <mxGeometry width="50" height="50" relative="1" as="geometry">
            <mxPoint x="1320" y="440" as="sourcePoint" />
            <mxPoint x="1370" y="390" as="targetPoint" />
          </mxGeometry>
        </mxCell>
        <mxCell id="ja0reKFXvlu5BaOZ1oow-4" value="Адрес" style="ellipse;whiteSpace=wrap;html=1;" parent="1" vertex="1">
          <mxGeometry x="1290" y="130" width="120" height="80" as="geometry" />
        </mxCell>
        <mxCell id="ja0reKFXvlu5BaOZ1oow-5" value="" style="endArrow=none;html=1;rounded=0;" parent="1" source="ja0reKFXvlu5BaOZ1oow-4" target="ja0reKFXvlu5BaOZ1oow-1" edge="1">
          <mxGeometry width="50" height="50" relative="1" as="geometry">
            <mxPoint x="1229" y="385" as="sourcePoint" />
            <mxPoint x="1265" y="340" as="targetPoint" />
          </mxGeometry>
        </mxCell>
        <mxCell id="ja0reKFXvlu5BaOZ1oow-6" value="Товар" style="rounded=0;whiteSpace=wrap;html=1;" parent="1" vertex="1">
          <mxGeometry x="1220" y="860" width="120" height="60" as="geometry" />
        </mxCell>
        <mxCell id="ja0reKFXvlu5BaOZ1oow-7" value="&lt;u&gt;Артикул&lt;/u&gt;" style="ellipse;whiteSpace=wrap;html=1;" parent="1" vertex="1">
          <mxGeometry x="1080" y="960" width="120" height="80" as="geometry" />
        </mxCell>
        <mxCell id="ja0reKFXvlu5BaOZ1oow-8" value="" style="endArrow=none;html=1;rounded=0;" parent="1" source="ja0reKFXvlu5BaOZ1oow-7" target="ja0reKFXvlu5BaOZ1oow-6" edge="1">
          <mxGeometry width="50" height="50" relative="1" as="geometry">
            <mxPoint x="1270" y="1030" as="sourcePoint" />
            <mxPoint x="1320" y="980" as="targetPoint" />
          </mxGeometry>
        </mxCell>
        <mxCell id="ja0reKFXvlu5BaOZ1oow-9" value="Название" style="ellipse;whiteSpace=wrap;html=1;" parent="1" vertex="1">
          <mxGeometry x="1220" y="960" width="120" height="80" as="geometry" />
        </mxCell>
        <mxCell id="ja0reKFXvlu5BaOZ1oow-10" value="" style="endArrow=none;html=1;rounded=0;" parent="1" source="ja0reKFXvlu5BaOZ1oow-9" target="ja0reKFXvlu5BaOZ1oow-6" edge="1">
          <mxGeometry width="50" height="50" relative="1" as="geometry">
            <mxPoint x="1179" y="975" as="sourcePoint" />
            <mxPoint x="1215" y="930" as="targetPoint" />
          </mxGeometry>
        </mxCell>
        <mxCell id="ja0reKFXvlu5BaOZ1oow-11" value="Количество к оценке" style="ellipse;whiteSpace=wrap;html=1;" parent="1" vertex="1">
          <mxGeometry x="1360" y="960" width="120" height="80" as="geometry" />
        </mxCell>
        <mxCell id="ja0reKFXvlu5BaOZ1oow-12" value="" style="endArrow=none;html=1;rounded=0;" parent="1" source="ja0reKFXvlu5BaOZ1oow-11" target="ja0reKFXvlu5BaOZ1oow-6" edge="1">
          <mxGeometry width="50" height="50" relative="1" as="geometry">
            <mxPoint x="1273" y="972" as="sourcePoint" />
            <mxPoint x="1254" y="930" as="targetPoint" />
          </mxGeometry>
        </mxCell>
        <mxCell id="ja0reKFXvlu5BaOZ1oow-13" value="Учёт" style="shape=ext;double=1;rounded=0;whiteSpace=wrap;html=1;" parent="1" vertex="1">
          <mxGeometry x="1220" y="560" width="120" height="60" as="geometry" />
        </mxCell>
        <mxCell id="ja0reKFXvlu5BaOZ1oow-14" value="ИН магазина" style="ellipse;whiteSpace=wrap;html=1;" parent="1" vertex="1">
          <mxGeometry x="1070" y="452" width="120" height="80" as="geometry" />
        </mxCell>
        <mxCell id="ja0reKFXvlu5BaOZ1oow-16" value="Артикул" style="ellipse;whiteSpace=wrap;html=1;" parent="1" vertex="1">
          <mxGeometry x="1070" y="550" width="120" height="80" as="geometry" />
        </mxCell>
        <mxCell id="ja0reKFXvlu5BaOZ1oow-18" value="Стоимость за еденицу" style="ellipse;whiteSpace=wrap;html=1;" parent="1" vertex="1">
          <mxGeometry x="1070" y="647" width="120" height="80" as="geometry" />
        </mxCell>
        <mxCell id="ja0reKFXvlu5BaOZ1oow-19" value="" style="endArrow=none;html=1;rounded=0;" parent="1" source="ja0reKFXvlu5BaOZ1oow-18" target="ja0reKFXvlu5BaOZ1oow-13" edge="1">
          <mxGeometry width="50" height="50" relative="1" as="geometry">
            <mxPoint x="1261" y="795" as="sourcePoint" />
            <mxPoint x="1225" y="750" as="targetPoint" />
          </mxGeometry>
        </mxCell>
        <mxCell id="ja0reKFXvlu5BaOZ1oow-27" value="Покупка" style="shape=ext;double=1;rounded=0;whiteSpace=wrap;html=1;" parent="1" vertex="1">
          <mxGeometry x="740" y="860" width="120" height="60" as="geometry" />
        </mxCell>
        <mxCell id="ja0reKFXvlu5BaOZ1oow-30" value="ИН чека" style="ellipse;whiteSpace=wrap;html=1;" parent="1" vertex="1">
          <mxGeometry x="570" y="792.5" width="120" height="80" as="geometry" />
        </mxCell>
        <mxCell id="ja0reKFXvlu5BaOZ1oow-31" value="" style="endArrow=none;html=1;rounded=0;" parent="1" source="ja0reKFXvlu5BaOZ1oow-30" target="ja0reKFXvlu5BaOZ1oow-27" edge="1">
          <mxGeometry width="50" height="50" relative="1" as="geometry">
            <mxPoint x="579" y="825" as="sourcePoint" />
            <mxPoint x="615" y="780" as="targetPoint" />
          </mxGeometry>
        </mxCell>
        <mxCell id="ja0reKFXvlu5BaOZ1oow-32" value="Артикул товара" style="ellipse;whiteSpace=wrap;html=1;" parent="1" vertex="1">
          <mxGeometry x="570" y="882.5" width="120" height="80" as="geometry" />
        </mxCell>
        <mxCell id="ja0reKFXvlu5BaOZ1oow-33" value="" style="endArrow=none;html=1;rounded=0;" parent="1" source="ja0reKFXvlu5BaOZ1oow-32" target="ja0reKFXvlu5BaOZ1oow-27" edge="1">
          <mxGeometry width="50" height="50" relative="1" as="geometry">
            <mxPoint x="701" y="825" as="sourcePoint" />
            <mxPoint x="665" y="780" as="targetPoint" />
          </mxGeometry>
        </mxCell>
        <mxCell id="ja0reKFXvlu5BaOZ1oow-34" value="Количество" style="ellipse;whiteSpace=wrap;html=1;" parent="1" vertex="1">
          <mxGeometry x="570" y="972.5" width="120" height="80" as="geometry" />
        </mxCell>
        <mxCell id="ja0reKFXvlu5BaOZ1oow-35" value="" style="endArrow=none;html=1;rounded=0;" parent="1" source="ja0reKFXvlu5BaOZ1oow-34" target="ja0reKFXvlu5BaOZ1oow-27" edge="1">
          <mxGeometry width="50" height="50" relative="1" as="geometry">
            <mxPoint x="857" y="832" as="sourcePoint" />
            <mxPoint x="776" y="780" as="targetPoint" />
          </mxGeometry>
        </mxCell>
        <mxCell id="ja0reKFXvlu5BaOZ1oow-37" value="Чек" style="shape=ext;double=1;rounded=0;whiteSpace=wrap;html=1;" parent="1" vertex="1">
          <mxGeometry x="740" y="268" width="120" height="60" as="geometry" />
        </mxCell>
        <mxCell id="ja0reKFXvlu5BaOZ1oow-38" value="&lt;u&gt;ИН&lt;/u&gt;" style="ellipse;whiteSpace=wrap;html=1;" parent="1" vertex="1">
          <mxGeometry x="530" y="80" width="120" height="80" as="geometry" />
        </mxCell>
        <mxCell id="ja0reKFXvlu5BaOZ1oow-39" value="" style="endArrow=none;html=1;rounded=0;" parent="1" source="ja0reKFXvlu5BaOZ1oow-38" target="ja0reKFXvlu5BaOZ1oow-37" edge="1">
          <mxGeometry width="50" height="50" relative="1" as="geometry">
            <mxPoint x="660" y="400" as="sourcePoint" />
            <mxPoint x="710" y="350" as="targetPoint" />
          </mxGeometry>
        </mxCell>
        <mxCell id="ja0reKFXvlu5BaOZ1oow-40" value="ИН магазина" style="ellipse;whiteSpace=wrap;html=1;" parent="1" vertex="1">
          <mxGeometry x="530" y="190" width="120" height="80" as="geometry" />
        </mxCell>
        <mxCell id="ja0reKFXvlu5BaOZ1oow-41" value="" style="endArrow=none;html=1;rounded=0;" parent="1" source="ja0reKFXvlu5BaOZ1oow-40" target="ja0reKFXvlu5BaOZ1oow-37" edge="1">
          <mxGeometry width="50" height="50" relative="1" as="geometry">
            <mxPoint x="569" y="345" as="sourcePoint" />
            <mxPoint x="605" y="300" as="targetPoint" />
          </mxGeometry>
        </mxCell>
        <mxCell id="ja0reKFXvlu5BaOZ1oow-42" value="Общая стоимость" style="ellipse;whiteSpace=wrap;html=1;" parent="1" vertex="1">
          <mxGeometry x="530" y="288" width="120" height="80" as="geometry" />
        </mxCell>
        <mxCell id="ja0reKFXvlu5BaOZ1oow-43" value="" style="endArrow=none;html=1;rounded=0;" parent="1" source="ja0reKFXvlu5BaOZ1oow-42" target="ja0reKFXvlu5BaOZ1oow-37" edge="1">
          <mxGeometry width="50" height="50" relative="1" as="geometry">
            <mxPoint x="691" y="345" as="sourcePoint" />
            <mxPoint x="655" y="300" as="targetPoint" />
          </mxGeometry>
        </mxCell>
        <mxCell id="ja0reKFXvlu5BaOZ1oow-44" value="Время приобретения" style="ellipse;whiteSpace=wrap;html=1;" parent="1" vertex="1">
          <mxGeometry x="530" y="390" width="120" height="80" as="geometry" />
        </mxCell>
        <mxCell id="ja0reKFXvlu5BaOZ1oow-45" value="" style="endArrow=none;html=1;rounded=0;" parent="1" source="ja0reKFXvlu5BaOZ1oow-44" target="ja0reKFXvlu5BaOZ1oow-37" edge="1">
          <mxGeometry width="50" height="50" relative="1" as="geometry">
            <mxPoint x="847" y="352" as="sourcePoint" />
            <mxPoint x="766" y="300" as="targetPoint" />
          </mxGeometry>
        </mxCell>
        <mxCell id="ja0reKFXvlu5BaOZ1oow-46" value="Имеет" style="double=1;rhombus;whiteSpace=wrap;html=1;" parent="1" vertex="1">
          <mxGeometry x="1240" y="400" width="80" height="80" as="geometry" />
        </mxCell>
        <mxCell id="ja0reKFXvlu5BaOZ1oow-47" value="" style="endArrow=none;html=1;rounded=0;" parent="1" source="ja0reKFXvlu5BaOZ1oow-46" target="ja0reKFXvlu5BaOZ1oow-1" edge="1">
          <mxGeometry width="50" height="50" relative="1" as="geometry">
            <mxPoint x="1140" y="610" as="sourcePoint" />
            <mxPoint x="1190" y="560" as="targetPoint" />
          </mxGeometry>
        </mxCell>
        <mxCell id="ja0reKFXvlu5BaOZ1oow-49" value="Содержится" style="double=1;rhombus;whiteSpace=wrap;html=1;" parent="1" vertex="1">
          <mxGeometry x="1230" y="710" width="100" height="80" as="geometry" />
        </mxCell>
        <mxCell id="ja0reKFXvlu5BaOZ1oow-51" value="" style="endArrow=none;html=1;rounded=0;" parent="1" source="ja0reKFXvlu5BaOZ1oow-49" target="ja0reKFXvlu5BaOZ1oow-6" edge="1">
          <mxGeometry width="50" height="50" relative="1" as="geometry">
            <mxPoint x="1290" y="720" as="sourcePoint" />
            <mxPoint x="1290" y="630" as="targetPoint" />
          </mxGeometry>
        </mxCell>
        <mxCell id="ja0reKFXvlu5BaOZ1oow-57" value="Количество" style="ellipse;whiteSpace=wrap;html=1;" parent="1" vertex="1">
          <mxGeometry x="1070" y="745" width="120" height="80" as="geometry" />
        </mxCell>
        <mxCell id="ja0reKFXvlu5BaOZ1oow-58" value="" style="endArrow=none;html=1;rounded=0;" parent="1" source="ja0reKFXvlu5BaOZ1oow-57" target="ja0reKFXvlu5BaOZ1oow-13" edge="1">
          <mxGeometry width="50" height="50" relative="1" as="geometry">
            <mxPoint x="1717" y="786" as="sourcePoint" />
            <mxPoint x="1681" y="741" as="targetPoint" />
          </mxGeometry>
        </mxCell>
        <mxCell id="ja0reKFXvlu5BaOZ1oow-65" value="Состоит из" style="double=1;rhombus;whiteSpace=wrap;html=1;" parent="1" vertex="1">
          <mxGeometry x="760" y="550" width="80" height="80" as="geometry" />
        </mxCell>
        <mxCell id="ja0reKFXvlu5BaOZ1oow-66" value="Является" style="double=1;rhombus;whiteSpace=wrap;html=1;" parent="1" vertex="1">
          <mxGeometry x="980" y="850" width="80" height="80" as="geometry" />
        </mxCell>
        <mxCell id="ja0reKFXvlu5BaOZ1oow-68" value="" style="endArrow=none;html=1;rounded=0;" parent="1" source="ja0reKFXvlu5BaOZ1oow-66" target="ja0reKFXvlu5BaOZ1oow-6" edge="1">
          <mxGeometry width="50" height="50" relative="1" as="geometry">
            <mxPoint x="860" y="860" as="sourcePoint" />
            <mxPoint x="910" y="810" as="targetPoint" />
          </mxGeometry>
        </mxCell>
        <mxCell id="ja0reKFXvlu5BaOZ1oow-71" value="" style="endArrow=none;html=1;rounded=0;" parent="1" source="ja0reKFXvlu5BaOZ1oow-65" target="ja0reKFXvlu5BaOZ1oow-37" edge="1">
          <mxGeometry width="50" height="50" relative="1" as="geometry">
            <mxPoint x="794" y="616" as="sourcePoint" />
            <mxPoint x="807" y="730" as="targetPoint" />
          </mxGeometry>
        </mxCell>
        <mxCell id="ja0reKFXvlu5BaOZ1oow-74" value="" style="endArrow=none;html=1;rounded=0;" parent="1" source="ja0reKFXvlu5BaOZ1oow-1" target="ja0reKFXvlu5BaOZ1oow-75" edge="1">
          <mxGeometry width="50" height="50" relative="1" as="geometry">
            <mxPoint x="1251" y="340" as="sourcePoint" />
            <mxPoint x="1030" y="270" as="targetPoint" />
          </mxGeometry>
        </mxCell>
        <mxCell id="ja0reKFXvlu5BaOZ1oow-75" value="Содержит информацию" style="double=1;rhombus;whiteSpace=wrap;html=1;" parent="1" vertex="1">
          <mxGeometry x="965" y="258" width="110" height="80" as="geometry" />
        </mxCell>
        <mxCell id="ja0reKFXvlu5BaOZ1oow-78" value="1" style="text;html=1;align=center;verticalAlign=middle;resizable=0;points=[];autosize=1;strokeColor=none;fillColor=none;" parent="1" vertex="1">
          <mxGeometry x="797" y="339" width="30" height="30" as="geometry" />
        </mxCell>
        <mxCell id="ja0reKFXvlu5BaOZ1oow-79" value="N" style="text;html=1;align=center;verticalAlign=middle;resizable=0;points=[];autosize=1;strokeColor=none;fillColor=none;" parent="1" vertex="1">
          <mxGeometry x="800" y="830" width="30" height="30" as="geometry" />
        </mxCell>
        <mxCell id="ja0reKFXvlu5BaOZ1oow-80" value="" style="shape=link;html=1;rounded=0;" parent="1" source="ja0reKFXvlu5BaOZ1oow-37" target="ja0reKFXvlu5BaOZ1oow-75" edge="1">
          <mxGeometry width="100" relative="1" as="geometry">
            <mxPoint x="830" y="300" as="sourcePoint" />
            <mxPoint x="930" y="300" as="targetPoint" />
          </mxGeometry>
        </mxCell>
        <mxCell id="ja0reKFXvlu5BaOZ1oow-81" value="1" style="text;html=1;align=center;verticalAlign=middle;resizable=0;points=[];autosize=1;strokeColor=none;fillColor=none;" parent="1" vertex="1">
          <mxGeometry x="1190" y="268" width="30" height="30" as="geometry" />
        </mxCell>
        <mxCell id="ja0reKFXvlu5BaOZ1oow-82" value="N" style="text;html=1;align=center;verticalAlign=middle;resizable=0;points=[];autosize=1;strokeColor=none;fillColor=none;" parent="1" vertex="1">
          <mxGeometry x="855" y="238" width="30" height="30" as="geometry" />
        </mxCell>
        <mxCell id="ja0reKFXvlu5BaOZ1oow-91" value="N" style="text;html=1;align=center;verticalAlign=middle;resizable=0;points=[];autosize=1;strokeColor=none;fillColor=none;" parent="1" vertex="1">
          <mxGeometry x="860" y="860" width="30" height="30" as="geometry" />
        </mxCell>
        <mxCell id="ja0reKFXvlu5BaOZ1oow-92" value="1" style="text;html=1;align=center;verticalAlign=middle;resizable=0;points=[];autosize=1;strokeColor=none;fillColor=none;" parent="1" vertex="1">
          <mxGeometry x="1190" y="860" width="30" height="30" as="geometry" />
        </mxCell>
        <mxCell id="ja0reKFXvlu5BaOZ1oow-93" value="" style="shape=link;html=1;rounded=0;" parent="1" source="ja0reKFXvlu5BaOZ1oow-65" target="ja0reKFXvlu5BaOZ1oow-27" edge="1">
          <mxGeometry width="100" relative="1" as="geometry">
            <mxPoint x="870" y="308" as="sourcePoint" />
            <mxPoint x="975" y="308" as="targetPoint" />
          </mxGeometry>
        </mxCell>
        <mxCell id="ja0reKFXvlu5BaOZ1oow-94" value="" style="shape=link;html=1;rounded=0;" parent="1" source="ja0reKFXvlu5BaOZ1oow-13" target="ja0reKFXvlu5BaOZ1oow-49" edge="1">
          <mxGeometry width="100" relative="1" as="geometry">
            <mxPoint x="810" y="640" as="sourcePoint" />
            <mxPoint x="810" y="870" as="targetPoint" />
          </mxGeometry>
        </mxCell>
        <mxCell id="ja0reKFXvlu5BaOZ1oow-96" value="N" style="text;html=1;align=center;verticalAlign=middle;resizable=0;points=[];autosize=1;strokeColor=none;fillColor=none;" parent="1" vertex="1">
          <mxGeometry x="1280" y="621" width="30" height="30" as="geometry" />
        </mxCell>
        <mxCell id="ja0reKFXvlu5BaOZ1oow-97" value="1" style="text;html=1;align=center;verticalAlign=middle;resizable=0;points=[];autosize=1;strokeColor=none;fillColor=none;" parent="1" vertex="1">
          <mxGeometry x="1280" y="830" width="30" height="30" as="geometry" />
        </mxCell>
        <mxCell id="ja0reKFXvlu5BaOZ1oow-98" value="" style="shape=link;html=1;rounded=0;" parent="1" source="ja0reKFXvlu5BaOZ1oow-27" target="ja0reKFXvlu5BaOZ1oow-66" edge="1">
          <mxGeometry width="100" relative="1" as="geometry">
            <mxPoint x="1290" y="630" as="sourcePoint" />
            <mxPoint x="1290" y="720" as="targetPoint" />
          </mxGeometry>
        </mxCell>
        <mxCell id="ja0reKFXvlu5BaOZ1oow-99" value="" style="shape=link;html=1;rounded=0;" parent="1" source="ja0reKFXvlu5BaOZ1oow-13" target="ja0reKFXvlu5BaOZ1oow-46" edge="1">
          <mxGeometry width="100" relative="1" as="geometry">
            <mxPoint x="1290" y="630" as="sourcePoint" />
            <mxPoint x="1290" y="720" as="targetPoint" />
          </mxGeometry>
        </mxCell>
        <mxCell id="ja0reKFXvlu5BaOZ1oow-100" value="N" style="text;html=1;align=center;verticalAlign=middle;resizable=0;points=[];autosize=1;strokeColor=none;fillColor=none;" parent="1" vertex="1">
          <mxGeometry x="1280" y="530" width="30" height="30" as="geometry" />
        </mxCell>
        <mxCell id="ja0reKFXvlu5BaOZ1oow-101" value="1" style="text;html=1;align=center;verticalAlign=middle;resizable=0;points=[];autosize=1;strokeColor=none;fillColor=none;" parent="1" vertex="1">
          <mxGeometry x="1280" y="328" width="30" height="30" as="geometry" />
        </mxCell>
        <mxCell id="3wDV9xH9BuALPQJr0HlA-1" value="&lt;u&gt;ИН&lt;/u&gt;" style="ellipse;whiteSpace=wrap;html=1;" vertex="1" parent="1">
          <mxGeometry x="1070" y="358" width="120" height="80" as="geometry" />
        </mxCell>
        <mxCell id="3wDV9xH9BuALPQJr0HlA-2" value="" style="endArrow=none;html=1;rounded=0;" edge="1" parent="1" source="ja0reKFXvlu5BaOZ1oow-16" target="ja0reKFXvlu5BaOZ1oow-13">
          <mxGeometry width="50" height="50" relative="1" as="geometry">
            <mxPoint x="1183" y="669" as="sourcePoint" />
            <mxPoint x="1244" y="630" as="targetPoint" />
          </mxGeometry>
        </mxCell>
        <mxCell id="3wDV9xH9BuALPQJr0HlA-3" value="" style="endArrow=none;html=1;rounded=0;" edge="1" parent="1" source="ja0reKFXvlu5BaOZ1oow-14" target="ja0reKFXvlu5BaOZ1oow-13">
          <mxGeometry width="50" height="50" relative="1" as="geometry">
            <mxPoint x="1200" y="598" as="sourcePoint" />
            <mxPoint x="1230" y="599" as="targetPoint" />
          </mxGeometry>
        </mxCell>
        <mxCell id="3wDV9xH9BuALPQJr0HlA-4" value="" style="endArrow=none;html=1;rounded=0;" edge="1" parent="1" source="3wDV9xH9BuALPQJr0HlA-1" target="ja0reKFXvlu5BaOZ1oow-13">
          <mxGeometry width="50" height="50" relative="1" as="geometry">
            <mxPoint x="1183" y="530" as="sourcePoint" />
            <mxPoint x="1244" y="570" as="targetPoint" />
          </mxGeometry>
        </mxCell>
        <mxCell id="3wDV9xH9BuALPQJr0HlA-5" value="" style="endArrow=none;dashed=1;html=1;rounded=0;" edge="1" parent="1">
          <mxGeometry width="50" height="50" relative="1" as="geometry">
            <mxPoint x="1105" y="600" as="sourcePoint" />
            <mxPoint x="1155" y="600" as="targetPoint" />
          </mxGeometry>
        </mxCell>
        <mxCell id="3wDV9xH9BuALPQJr0HlA-6" value="" style="endArrow=none;dashed=1;html=1;rounded=0;" edge="1" parent="1">
          <mxGeometry width="50" height="50" relative="1" as="geometry">
            <mxPoint x="1090" y="500" as="sourcePoint" />
            <mxPoint x="1170" y="500" as="targetPoint" />
          </mxGeometry>
        </mxCell>
        <mxCell id="3wDV9xH9BuALPQJr0HlA-8" value="&lt;u&gt;ИН&lt;/u&gt;" style="ellipse;whiteSpace=wrap;html=1;" vertex="1" parent="1">
          <mxGeometry x="570" y="697.5" width="120" height="80" as="geometry" />
        </mxCell>
        <mxCell id="3wDV9xH9BuALPQJr0HlA-9" value="" style="endArrow=none;html=1;rounded=0;" edge="1" parent="1" source="3wDV9xH9BuALPQJr0HlA-8" target="ja0reKFXvlu5BaOZ1oow-27">
          <mxGeometry width="50" height="50" relative="1" as="geometry">
            <mxPoint x="675" y="821" as="sourcePoint" />
            <mxPoint x="759" y="870" as="targetPoint" />
          </mxGeometry>
        </mxCell>
        <mxCell id="3wDV9xH9BuALPQJr0HlA-10" value="" style="endArrow=none;dashed=1;html=1;rounded=0;" edge="1" parent="1">
          <mxGeometry width="50" height="50" relative="1" as="geometry">
            <mxPoint x="585" y="930.4" as="sourcePoint" />
            <mxPoint x="675" y="930" as="targetPoint" />
          </mxGeometry>
        </mxCell>
        <mxCell id="3wDV9xH9BuALPQJr0HlA-11" value="" style="endArrow=none;dashed=1;html=1;rounded=0;entryX=0.75;entryY=0.594;entryDx=0;entryDy=0;entryPerimeter=0;" edge="1" parent="1" target="ja0reKFXvlu5BaOZ1oow-30">
          <mxGeometry width="50" height="50" relative="1" as="geometry">
            <mxPoint x="600" y="840" as="sourcePoint" />
            <mxPoint x="1209" y="616" as="targetPoint" />
          </mxGeometry>
        </mxCell>
        <mxCell id="3wDV9xH9BuALPQJr0HlA-12" value="" style="endArrow=none;dashed=1;html=1;rounded=0;" edge="1" parent="1">
          <mxGeometry width="50" height="50" relative="1" as="geometry">
            <mxPoint x="550" y="238" as="sourcePoint" />
            <mxPoint x="630" y="238" as="targetPoint" />
          </mxGeometry>
        </mxCell>
      </root>
    </mxGraphModel>
  </diagram>
</mxfile>
